<svg width="137" height="28" viewBox="0 0 137 28" fill="none" xmlns="http://www.w3.org/2000/svg">
<mask id="mask0_668_5131" style="mask-type:alpha" maskUnits="userSpaceOnUse" x="0" y="0" width="137" height="28">
<path d="M35.7944 10.4202C37.7821 10.4202 39.3763 11.0759 40.5772 12.3872C41.7781 13.678 42.3786 15.4606 42.3786 17.7349V27.7541H37.0988V18.4418C37.0988 17.2944 36.7986 16.4031 36.1981 15.7679C35.5977 15.1328 34.7902 14.8152 33.7757 14.8152C32.7611 14.8152 31.9536 15.1328 31.3532 15.7679C30.7527 16.4031 30.4525 17.2944 30.4525 18.4418V27.7541H25.1417V5.01108H30.4525V12.9097C30.9908 12.1516 31.7259 11.5471 32.6576 11.0964C33.5893 10.6456 34.6349 10.4202 35.7944 10.4202Z" fill="#393858"/>
<path d="M62.4052 18.9028C62.4052 19.3945 62.3742 19.9068 62.3121 20.4395H50.2929C50.3757 21.5049 50.7173 22.3245 51.3177 22.8982C51.9389 23.4514 52.6946 23.728 53.5849 23.728C54.91 23.728 55.8314 23.1748 56.349 22.0684H62.0015C61.7116 23.1953 61.1836 24.2095 60.4176 25.111C59.6722 26.0125 58.7301 26.7194 57.5913 27.2317C56.4526 27.7439 55.1792 28 53.7713 28C52.0735 28 50.562 27.6414 49.2369 26.9243C47.9118 26.2072 46.8765 25.1827 46.1312 23.8509C45.3858 22.5191 45.0131 20.9619 45.0131 19.1794C45.0131 17.3968 45.3754 15.8396 46.1001 14.5078C46.8455 13.176 47.8807 12.1516 49.2058 11.4345C50.531 10.7173 52.0528 10.3588 53.7713 10.3588C55.4484 10.3588 56.9391 10.7071 58.2435 11.4037C59.548 12.1004 60.5625 13.0941 61.2872 14.3849C62.0325 15.6757 62.4052 17.1817 62.4052 18.9028ZM56.9702 17.5198C56.9702 16.6182 56.6596 15.9011 56.0385 15.3684C55.4173 14.8357 54.6409 14.5693 53.7092 14.5693C52.8189 14.5693 52.0631 14.8254 51.442 15.3377C50.8415 15.8499 50.4688 16.5773 50.3239 17.5198H56.9702Z" fill="#393858"/>
<path d="M64.151 19.1487C64.151 17.3866 64.4823 15.8396 65.1448 14.5078C65.8281 13.176 66.7495 12.1516 67.9089 11.4345C69.0684 10.7173 70.3625 10.3588 71.7911 10.3588C73.0127 10.3588 74.079 10.6046 74.99 11.0964C75.9218 11.5881 76.6361 12.2335 77.133 13.0326V10.6046H82.4438V27.7541H77.133V25.3262C76.6154 26.1252 75.8907 26.7706 74.959 27.2624C74.048 27.7541 72.9817 28 71.7601 28C70.3521 28 69.0684 27.6414 67.9089 26.9243C66.7495 26.1867 65.8281 25.152 65.1448 23.8202C64.4823 22.4679 64.151 20.9107 64.151 19.1487ZM77.133 19.1794C77.133 17.8681 76.7603 16.8334 76.0149 16.0753C75.2903 15.3172 74.3999 14.9381 73.344 14.9381C72.288 14.9381 71.3874 15.3172 70.642 16.0753C69.9173 16.8129 69.555 17.8373 69.555 19.1487C69.555 20.46 69.9173 21.5049 70.642 22.2835C71.3874 23.0416 72.288 23.4207 73.344 23.4207C74.3999 23.4207 75.2903 23.0416 76.0149 22.2835C76.7603 21.5254 77.133 20.4907 77.133 19.1794Z" fill="#393858"/>
<path d="M91.5968 13.4629C92.2179 12.5204 92.9943 11.7828 93.9261 11.2501C94.8578 10.6968 95.893 10.4202 97.0318 10.4202V15.9831H95.5721C94.247 15.9831 93.2532 16.2699 92.5906 16.8436C91.928 17.3968 91.5968 18.3803 91.5968 19.7941V27.7541H86.2859V10.6046H91.5968V13.4629Z" fill="#393858"/>
<path d="M108.266 14.9689H105.409V27.7541H100.098V14.9689H98.1727V10.6046H100.098V10.1129C100.098 8.00251 100.709 6.40435 101.931 5.31842C103.152 4.212 104.943 3.65879 107.304 3.65879C107.697 3.65879 107.987 3.66904 108.173 3.68953V8.14593C107.159 8.08447 106.444 8.22789 106.03 8.57621C105.616 8.92453 105.409 9.54945 105.409 10.451V10.6046H108.266V14.9689Z" fill="#393858"/>
<path d="M127.874 10.6046V27.7541H122.564V25.4184C122.025 26.1765 121.29 26.7911 120.359 27.2624C119.448 27.7132 118.433 27.9385 117.315 27.9385C115.99 27.9385 114.82 27.6517 113.805 27.078C112.791 26.4838 112.004 25.6335 111.445 24.5271C110.886 23.4207 110.607 22.1196 110.607 20.6239V10.6046H115.886V19.917C115.886 21.0644 116.187 21.9557 116.787 22.5908C117.387 23.226 118.195 23.5436 119.209 23.5436C120.245 23.5436 121.063 23.226 121.663 22.5908C122.263 21.9557 122.564 21.0644 122.564 19.917V10.6046H127.874Z" fill="#393858"/>
<path d="M137 5.01108V27.7541H131.689V5.01108H137Z" fill="#393858"/>
<path d="M13.9533 27.6159C6.24712 27.6159 3.36849e-07 21.4339 0 13.808C-3.36849e-07 6.18203 6.24712 6.25387e-07 13.9533 2.92048e-07L20.7049 0V27.6159H13.9533Z" fill="#FFB0B0"/>
<path d="M13.7283 20.4892C9.87517 20.4892 6.75161 17.3982 6.75161 13.5853C6.75161 9.77229 9.87516 6.68127 13.7283 6.68127H20.7049V20.4892H13.7283Z" fill="white"/>
</mask>
<g mask="url(#mask0_668_5131)">
<path d="M-5.17623 -2.19531H148.632V35.8561H-5.17623V-2.19531Z" fill="url(#paint0_linear_668_5131)"/>
</g>
<path d="M6.65516 13.5375C6.65516 9.6982 9.76754 6.58582 13.6069 6.58582H20.7049V20.4892H13.6069C9.76754 20.4892 6.65516 17.3768 6.65516 13.5375Z" fill="white"/>
<defs>
<linearGradient id="paint0_linear_668_5131" x1="-5.17623" y1="-0.365912" x2="148.441" y2="38.4426" gradientUnits="userSpaceOnUse">
<stop stop-color="#FFABE7"/>
<stop offset="0.364627" stop-color="#84E9FF"/>
<stop offset="0.699893" stop-color="#99B6FF"/>
<stop offset="1" stop-color="#FFB0B0"/>
</linearGradient>
</defs>
</svg>
